<mxfile host="app.diagrams.net" modified="2023-09-22T04:14:41.957Z" agent="Mozilla/5.0 (Windows NT 10.0; Win64; x64) AppleWebKit/537.36 (KHTML, like Gecko) Chrome/117.0.0.0 Safari/537.36" version="21.8.0" etag="zI4Hi-M9i6UwJuAjcjVk" type="github">
  <diagram name="Page-1" id="DyHgHvWT1WwUMINvCHsI">
    <mxGraphModel>
      <root>
        <mxCell id="0" />
        <mxCell id="1" parent="0" />
      </root>
    </mxGraphModel>
  </diagram>
</mxfile>
